<?xml version="1.0" encoding="UTF-8" standalone="no"?>
<!-- Created with Inkscape (http://www.inkscape.org/) -->

<svg
   xmlns:dc="http://purl.org/dc/elements/1.1/"
   xmlns:cc="http://creativecommons.org/ns#"
   xmlns:rdf="http://www.w3.org/1999/02/22-rdf-syntax-ns#"
   xmlns:svg="http://www.w3.org/2000/svg"
   xmlns="http://www.w3.org/2000/svg"
   xmlns:xlink="http://www.w3.org/1999/xlink"
   xmlns:sodipodi="http://sodipodi.sourceforge.net/DTD/sodipodi-0.dtd"
   xmlns:inkscape="http://www.inkscape.org/namespaces/inkscape"
   width="16"
   height="16"
   viewBox="0 0 16 16"
   id="svg2"
   version="1.1"
   inkscape:version="0.91 r13725"
   sodipodi:docname="fog.svg"
   inkscape:export-filename="/home/es5nhc/programmid/trv_dev/images/icons/fog.png"
   inkscape:export-xdpi="90"
   inkscape:export-ydpi="90">
  <defs
     id="defs4">
    <linearGradient
       inkscape:collect="always"
       id="linearGradient4777">
      <stop
         style="stop-color:#4d4d4d;stop-opacity:1;"
         offset="0"
         id="stop4779" />
      <stop
         style="stop-color:#4d4d4d;stop-opacity:0;"
         offset="1"
         id="stop4781" />
    </linearGradient>
    <linearGradient
       inkscape:collect="always"
       id="linearGradient4524">
      <stop
         style="stop-color:#ffffff;stop-opacity:1;"
         offset="0"
         id="stop4526" />
      <stop
         style="stop-color:#ffffff;stop-opacity:0;"
         offset="1"
         id="stop4528" />
    </linearGradient>
    <radialGradient
       inkscape:collect="always"
       xlink:href="#linearGradient4524"
       id="radialGradient4530"
       cx="5"
       cy="1047.3622"
       fx="5"
       fy="1047.3622"
       r="6"
       gradientTransform="matrix(1,0,0,0.5,0,523.6811)"
       gradientUnits="userSpaceOnUse" />
    <radialGradient
       inkscape:collect="always"
       xlink:href="#linearGradient4524"
       id="radialGradient4530-9"
       cx="5"
       cy="1047.3622"
       fx="5"
       fy="1047.3622"
       r="6"
       gradientTransform="matrix(1,0,0,0.5,7,523.6811)"
       gradientUnits="userSpaceOnUse" />
    <radialGradient
       inkscape:collect="always"
       xlink:href="#linearGradient4524"
       id="radialGradient4530-3"
       cx="5"
       cy="1047.3622"
       fx="5"
       fy="1047.3622"
       r="6"
       gradientTransform="matrix(1,0,0,0.5,11,522.6811)"
       gradientUnits="userSpaceOnUse" />
    <radialGradient
       inkscape:collect="always"
       xlink:href="#linearGradient4524"
       id="radialGradient4530-5"
       cx="5"
       cy="1047.3622"
       fx="5"
       fy="1047.3622"
       r="6"
       gradientTransform="matrix(1,0,0,0.5,2,520.6811)"
       gradientUnits="userSpaceOnUse" />
    <radialGradient
       inkscape:collect="always"
       xlink:href="#linearGradient4524"
       id="radialGradient4530-4"
       cx="5"
       cy="1047.3622"
       fx="5"
       fy="1047.3622"
       r="6"
       gradientTransform="matrix(1,0,0,0.5,1,520.6811)"
       gradientUnits="userSpaceOnUse" />
    <radialGradient
       inkscape:collect="always"
       xlink:href="#linearGradient4524"
       id="radialGradient4530-0"
       cx="5"
       cy="1047.3622"
       fx="5"
       fy="1047.3622"
       r="6"
       gradientTransform="matrix(1,0,0,0.5,9,520.6811)"
       gradientUnits="userSpaceOnUse" />
    <radialGradient
       inkscape:collect="always"
       xlink:href="#linearGradient4524"
       id="radialGradient4530-30"
       cx="5"
       cy="1047.3622"
       fx="5"
       fy="1047.3622"
       r="6"
       gradientTransform="matrix(1,0,0,0.5,2,522.6811)"
       gradientUnits="userSpaceOnUse" />
    <radialGradient
       inkscape:collect="always"
       xlink:href="#linearGradient4524"
       id="radialGradient4530-1"
       cx="5"
       cy="1047.3622"
       fx="5"
       fy="1047.3622"
       r="6"
       gradientTransform="matrix(1,0,0,0.5,6,524.6811)"
       gradientUnits="userSpaceOnUse" />
    <radialGradient
       inkscape:collect="always"
       xlink:href="#linearGradient4524"
       id="radialGradient4530-95"
       cx="5"
       cy="1047.3622"
       fx="5"
       fy="1047.3622"
       r="6"
       gradientTransform="matrix(1,0,0,0.5,7,527.6811)"
       gradientUnits="userSpaceOnUse" />
    <radialGradient
       inkscape:collect="always"
       xlink:href="#linearGradient4524"
       id="radialGradient4530-43"
       cx="5"
       cy="1047.3622"
       fx="5"
       fy="1047.3622"
       r="6"
       gradientTransform="matrix(1,0,0,0.5,3,526.6811)"
       gradientUnits="userSpaceOnUse" />
    <radialGradient
       inkscape:collect="always"
       xlink:href="#linearGradient4524"
       id="radialGradient4530-55"
       cx="5"
       cy="1047.3622"
       fx="5"
       fy="1047.3622"
       r="6"
       gradientTransform="matrix(1,0,0,0.5,-1,525.6811)"
       gradientUnits="userSpaceOnUse" />
    <radialGradient
       inkscape:collect="always"
       xlink:href="#linearGradient4524"
       id="radialGradient4530-7"
       cx="5"
       cy="1047.3622"
       fx="5"
       fy="1047.3622"
       r="6"
       gradientTransform="matrix(1,0,0,0.5,-2,524.6811)"
       gradientUnits="userSpaceOnUse" />
    <radialGradient
       inkscape:collect="always"
       xlink:href="#linearGradient4524"
       id="radialGradient4530-18"
       cx="5"
       cy="1047.3622"
       fx="5"
       fy="1047.3622"
       r="6"
       gradientTransform="matrix(1,0,0,0.5,-3,521.6811)"
       gradientUnits="userSpaceOnUse" />
    <radialGradient
       inkscape:collect="always"
       xlink:href="#linearGradient4524"
       id="radialGradient4530-33"
       cx="5"
       cy="1047.3622"
       fx="5"
       fy="1047.3622"
       r="6"
       gradientTransform="matrix(1,0,0,0.5,9,525.6811)"
       gradientUnits="userSpaceOnUse" />
    <radialGradient
       inkscape:collect="always"
       xlink:href="#linearGradient4524"
       id="radialGradient4530-8"
       cx="5"
       cy="1047.3622"
       fx="5"
       fy="1047.3622"
       r="6"
       gradientTransform="matrix(1,0,0,0.5,-5,526.6811)"
       gradientUnits="userSpaceOnUse" />
    <radialGradient
       inkscape:collect="always"
       xlink:href="#linearGradient4524"
       id="radialGradient4530-6"
       cx="5"
       cy="1047.3622"
       fx="5"
       fy="1047.3622"
       r="6"
       gradientTransform="matrix(1,0,0,0.5,-2,528.6811)"
       gradientUnits="userSpaceOnUse" />
    <radialGradient
       inkscape:collect="always"
       xlink:href="#linearGradient4524"
       id="radialGradient4530-68"
       cx="5"
       cy="1047.3622"
       fx="5"
       fy="1047.3622"
       r="6"
       gradientTransform="matrix(1,0,0,0.5,9,527.6811)"
       gradientUnits="userSpaceOnUse" />
    <linearGradient
       inkscape:collect="always"
       xlink:href="#linearGradient4777"
       id="linearGradient4783"
       x1="10.25"
       y1="1039.2946"
       x2="10.25"
       y2="1035.4757"
       gradientUnits="userSpaceOnUse"
       gradientTransform="matrix(1,0,0,1.8482143,-1.25,-878.4768)" />
  </defs>
  <sodipodi:namedview
     id="base"
     pagecolor="#000000"
     bordercolor="#666666"
     borderopacity="1.0"
     inkscape:pageopacity="0"
     inkscape:pageshadow="2"
     inkscape:zoom="11.2"
     inkscape:cx="2.5184226"
     inkscape:cy="12.095967"
     inkscape:document-units="px"
     inkscape:current-layer="layer1"
     showgrid="true"
     units="px"
     inkscape:window-width="1024"
     inkscape:window-height="555"
     inkscape:window-x="0"
     inkscape:window-y="0"
     inkscape:window-maximized="1">
    <inkscape:grid
       type="xygrid"
       id="grid4261" />
  </sodipodi:namedview>
  <metadata
     id="metadata7">
    <rdf:RDF>
      <cc:Work
         rdf:about="">
        <dc:format>image/svg+xml</dc:format>
        <dc:type
           rdf:resource="http://purl.org/dc/dcmitype/StillImage" />
        <dc:title></dc:title>
      </cc:Work>
    </rdf:RDF>
  </metadata>
  <g
     inkscape:label="Layer 1"
     inkscape:groupmode="layer"
     id="layer1"
     transform="translate(0,-1036.3622)">
    <rect
       style="opacity:1;fill:url(#linearGradient4783);fill-opacity:1;stroke:none;stroke-width:1;stroke-miterlimit:4;stroke-dasharray:none;stroke-dashoffset:0;stroke-opacity:1"
       id="rect4775"
       width="21"
       height="18.482143"
       x="-2.2499998"
       y="1035.0942" />
    <path
       style="opacity:0.25;fill:url(#radialGradient4530);fill-opacity:1;stroke:none;stroke-width:1;stroke-miterlimit:4;stroke-dasharray:none;stroke-dashoffset:0;stroke-opacity:1"
       d="m 11,1047.3622 a 6,3 0 0 1 -6,3 6,3 0 0 1 -6,-3 6,3 0 0 1 6,-3 6,3 0 0 1 6,3 z"
       id="path4521" />
    <path
       inkscape:connector-curvature="0"
       style="opacity:0.25;fill:url(#radialGradient4530-9);fill-opacity:1;stroke:none;stroke-width:1;stroke-miterlimit:4;stroke-dasharray:none;stroke-dashoffset:0;stroke-opacity:1"
       d="m 18,1047.3622 a 6,3 0 0 1 -6,3 6,3 0 0 1 -6,-3 6,3 0 0 1 6,-3 6,3 0 0 1 6,3 z"
       id="path4521-5" />
    <path
       inkscape:connector-curvature="0"
       style="opacity:0.25;fill:url(#radialGradient4530-3);fill-opacity:1;stroke:none;stroke-width:1;stroke-miterlimit:4;stroke-dasharray:none;stroke-dashoffset:0;stroke-opacity:1"
       d="m 22,1046.3622 a 6,3 0 0 1 -6,3 6,3 0 0 1 -6,-3 6,3 0 0 1 6,-3 6,3 0 0 1 6,3 z"
       id="path4521-3" />
    <path
       inkscape:connector-curvature="0"
       style="opacity:0.25;fill:url(#radialGradient4530-5);fill-opacity:1;stroke:none;stroke-width:1;stroke-miterlimit:4;stroke-dasharray:none;stroke-dashoffset:0;stroke-opacity:1"
       d="m 13,1044.3622 a 6,3 0 0 1 -6,3 6,3 0 0 1 -6,-3 6,3 0 0 1 6,-3 6,3 0 0 1 6,3 z"
       id="path4521-9" />
    <path
       inkscape:connector-curvature="0"
       style="opacity:0.25;fill:url(#radialGradient4530-4);fill-opacity:1;stroke:none;stroke-width:1;stroke-miterlimit:4;stroke-dasharray:none;stroke-dashoffset:0;stroke-opacity:1"
       d="m 12,1044.3622 a 6,3 0 0 1 -6,3 6,3 0 0 1 -6,-3 6,3 0 0 1 6,-3 6,3 0 0 1 6,3 z"
       id="path4521-4" />
    <path
       inkscape:connector-curvature="0"
       style="opacity:0.25;fill:url(#radialGradient4530-0);fill-opacity:1;stroke:none;stroke-width:1;stroke-miterlimit:4;stroke-dasharray:none;stroke-dashoffset:0;stroke-opacity:1"
       d="m 20,1044.3622 a 6,3 0 0 1 -6,3 6,3 0 0 1 -6,-3 6,3 0 0 1 6,-3 6,3 0 0 1 6,3 z"
       id="path4521-1" />
    <path
       inkscape:connector-curvature="0"
       style="opacity:0.25;fill:url(#radialGradient4530-30);fill-opacity:1;stroke:none;stroke-width:1;stroke-miterlimit:4;stroke-dasharray:none;stroke-dashoffset:0;stroke-opacity:1"
       d="m 13,1046.3622 a 6,3 0 0 1 -6,3 6,3 0 0 1 -6,-3 6,3 0 0 1 6,-3 6,3 0 0 1 6,3 z"
       id="path4521-6" />
    <path
       inkscape:connector-curvature="0"
       style="opacity:0.25;fill:url(#radialGradient4530-1);fill-opacity:1;stroke:none;stroke-width:1;stroke-miterlimit:4;stroke-dasharray:none;stroke-dashoffset:0;stroke-opacity:1"
       d="m 17,1048.3622 a 6,3 0 0 1 -6,3 6,3 0 0 1 -6,-3 6,3 0 0 1 6,-3 6,3 0 0 1 6,3 z"
       id="path4521-63" />
    <path
       inkscape:connector-curvature="0"
       style="opacity:0.25;fill:url(#radialGradient4530-95);fill-opacity:1;stroke:none;stroke-width:1;stroke-miterlimit:4;stroke-dasharray:none;stroke-dashoffset:0;stroke-opacity:1"
       d="m 18,1051.3622 a 6,3 0 0 1 -6,3 6,3 0 0 1 -6,-3 6,3 0 0 1 6,-3 6,3 0 0 1 6,3 z"
       id="path4521-2" />
    <path
       inkscape:connector-curvature="0"
       style="opacity:0.25;fill:url(#radialGradient4530-43);fill-opacity:1;stroke:none;stroke-width:1;stroke-miterlimit:4;stroke-dasharray:none;stroke-dashoffset:0;stroke-opacity:1"
       d="m 14,1050.3622 a 6,3 0 0 1 -6,3 6,3 0 0 1 -6,-3 6,3 0 0 1 6,-3 6,3 0 0 1 6,3 z"
       id="path4521-44" />
    <path
       inkscape:connector-curvature="0"
       style="opacity:0.25;fill:url(#radialGradient4530-55);fill-opacity:1;stroke:none;stroke-width:1;stroke-miterlimit:4;stroke-dasharray:none;stroke-dashoffset:0;stroke-opacity:1"
       d="m 10,1049.3622 a 6,3 0 0 1 -6,3 6,3 0 0 1 -6,-3 6,3 0 0 1 6,-3 6,3 0 0 1 6,3 z"
       id="path4521-8" />
    <path
       inkscape:connector-curvature="0"
       style="opacity:0.25;fill:url(#radialGradient4530-7);fill-opacity:1;stroke:none;stroke-width:1;stroke-miterlimit:4;stroke-dasharray:none;stroke-dashoffset:0;stroke-opacity:1"
       d="m 9,1048.3622 a 6,3 0 0 1 -6,3 6,3 0 0 1 -6,-3 6,3 0 0 1 6,-3 6,3 0 0 1 6,3 z"
       id="path4521-54" />
    <path
       inkscape:connector-curvature="0"
       style="opacity:0.25;fill:url(#radialGradient4530-18);fill-opacity:1;stroke:none;stroke-width:1;stroke-miterlimit:4;stroke-dasharray:none;stroke-dashoffset:0;stroke-opacity:1"
       d="m 8,1045.3622 a 6,3 0 0 1 -6,3 6,3 0 0 1 -6,-3 6,3 0 0 1 6,-3 6,3 0 0 1 6,3 z"
       id="path4521-87" />
    <path
       inkscape:connector-curvature="0"
       style="opacity:0.25;fill:url(#radialGradient4530-33);fill-opacity:1;stroke:none;stroke-width:1;stroke-miterlimit:4;stroke-dasharray:none;stroke-dashoffset:0;stroke-opacity:1"
       d="m 20,1049.3622 a 6,3 0 0 1 -6,3 6,3 0 0 1 -6,-3 6,3 0 0 1 6,-3 6,3 0 0 1 6,3 z"
       id="path4521-34" />
    <path
       inkscape:connector-curvature="0"
       style="opacity:0.5;fill:url(#radialGradient4530-8);fill-opacity:1;stroke:none;stroke-width:1;stroke-miterlimit:4;stroke-dasharray:none;stroke-dashoffset:0;stroke-opacity:1"
       d="m 6,1050.3622 a 6,3 0 0 1 -6,3 6,3 0 0 1 -6,-3 6,3 0 0 1 6,-3 6,3 0 0 1 6,3 z"
       id="path4521-42" />
    <path
       inkscape:connector-curvature="0"
       style="opacity:0.25;fill:url(#radialGradient4530-6);fill-opacity:1;stroke:none;stroke-width:1;stroke-miterlimit:4;stroke-dasharray:none;stroke-dashoffset:0;stroke-opacity:1"
       d="m 9,1052.3622 a 6,3 0 0 1 -6,3 6,3 0 0 1 -6,-3 6,3 0 0 1 6,-3 6,3 0 0 1 6,3 z"
       id="path4521-14" />
    <path
       inkscape:connector-curvature="0"
       style="opacity:0.25;fill:url(#radialGradient4530-68);fill-opacity:1;stroke:none;stroke-width:1;stroke-miterlimit:4;stroke-dasharray:none;stroke-dashoffset:0;stroke-opacity:1"
       d="m 20,1051.3622 a 6,3 0 0 1 -6,3 6,3 0 0 1 -6,-3 6,3 0 0 1 6,-3 6,3 0 0 1 6,3 z"
       id="path4521-7" />
  </g>
</svg>
